<svg width="17" height="17" viewBox="0 0 17 17" fill="none" xmlns="http://www.w3.org/2000/svg">
<path d="M15.6591 3.2804L15.6685 3.2712C16.223 2.71635 16.2409 1.83187 15.7084 1.29925C15.5837 1.17491 15.4356 1.07652 15.2727 1.00978C15.1097 0.943041 14.9352 0.909273 14.7591 0.910429C14.5687 0.91074 14.3803 0.948781 14.2048 1.02235C14.0292 1.09592 13.87 1.20357 13.7363 1.33906L12.5193 2.63958L8.16631 1.33643L7.26407 2.23894C7.20818 2.29474 7.16385 2.36102 7.1336 2.43397C7.10335 2.50693 7.08778 2.58513 7.08778 2.66411C7.08778 2.74309 7.10335 2.82129 7.1336 2.89424C7.16385 2.9672 7.20818 3.03348 7.26407 3.08928L7.3036 3.12881L10.4478 4.85915L9.98774 5.35841C8.96918 4.69981 7.78219 4.34919 6.56925 4.34864C6.33547 4.349 6.10188 4.36221 5.86955 4.38822L5.84773 4.36404C5.83747 4.37323 5.82591 4.3836 5.8146 4.39412C3.20146 4.70406 1.05064 6.60715 0.452014 9.23488C0.26871 10.0389 0.245603 10.8712 0.384012 11.6842C0.522421 12.4971 0.819635 13.2749 1.25868 13.973C1.69772 14.6711 2.26999 15.2758 2.94279 15.7527C3.6156 16.2296 4.37576 16.5692 5.17986 16.7523C5.63917 16.8571 6.10876 16.9101 6.57987 16.9104C9.52651 16.9104 12.0421 14.9015 12.6972 12.0251C12.813 11.5189 12.866 11.0004 12.8548 10.4813C12.8913 10.3385 12.8822 10.1879 12.8288 10.0505C12.7386 9.06814 12.4171 8.12109 11.8905 7.28688C11.8256 7.18368 11.7573 7.08325 11.687 6.98508L12.154 6.55457L13.8984 9.72398L13.9384 9.76383C14.0511 9.87631 14.2038 9.93947 14.363 9.93944C14.5222 9.93942 14.6749 9.8762 14.7876 9.76368L15.6904 8.86106L14.3786 4.47841L15.6591 3.2804ZM3.53901 14.9676L3.43569 15.1374C2.59422 14.5503 1.93394 13.7392 1.52961 12.7961C1.12528 11.8531 0.993055 10.8156 1.1479 9.80127C1.4995 9.89606 1.85455 10.036 1.99084 10.1335C1.98573 10.1697 1.98007 10.2065 1.97443 10.2432C1.9217 10.5854 1.84206 11.1022 2.26335 11.4089C2.63204 11.677 2.96947 11.4262 3.12338 11.2966C3.18516 11.3464 3.25246 11.396 3.32175 11.4471C3.4298 11.5268 3.62039 11.6674 3.68886 11.753C3.66719 11.8286 3.63523 11.918 3.60409 12.005C3.4817 12.3467 3.35514 12.6999 3.59069 12.9481C3.67192 13.048 3.91468 13.5071 3.97672 13.6725C3.97541 13.7275 3.97949 13.7903 3.98476 13.8719C3.99545 13.9886 3.99721 14.1059 3.99002 14.2228C3.98961 14.2227 3.51141 14.825 3.53901 14.9676ZM6.57987 16.1216C5.66496 16.1209 4.76454 15.893 3.95937 15.4586C4.34425 15.1331 4.67733 14.6103 4.68232 14.6019C4.79905 14.4047 4.79236 14.1429 4.7716 13.821C4.76818 13.7671 4.76424 13.7208 4.76502 13.6911C4.76445 13.7059 4.76229 13.7206 4.75856 13.7349C4.82182 13.4551 4.44141 12.8108 4.25843 12.5364C4.27736 12.4638 4.31758 12.3516 4.34635 12.2708C4.39639 12.1395 4.43866 12.0054 4.47295 11.8692C4.58164 11.3963 4.1425 11.0725 3.7897 10.8123C3.70165 10.7514 3.61781 10.6846 3.53875 10.6124C3.37996 10.445 3.11249 10.3157 2.72221 10.6062C2.72919 10.5228 2.74376 10.4282 2.75375 10.363C2.7669 10.2781 2.77967 10.1934 2.78782 10.1117C2.83315 9.65417 2.33918 9.29097 1.3222 9.03113C1.58904 8.13794 2.0804 7.32807 2.74936 6.67885C3.41832 6.02964 4.24255 5.56275 5.14332 5.32278C5.05335 5.54348 4.99485 5.77573 4.96955 6.01272C4.95258 6.16587 4.93064 6.30453 4.9113 6.42666C4.83417 6.91417 4.74662 7.46676 5.44681 7.77856C5.71899 7.90232 6.01084 7.97716 6.30899 7.99965C6.39491 8.00677 6.48033 8.01912 6.56476 8.0366C6.58854 8.15517 6.57344 8.39872 6.56724 8.49877C6.55857 8.63848 6.54925 8.78911 6.59394 8.91544C6.65163 9.23433 6.93029 10.3996 8.01395 11.1512C7.85288 11.2506 7.67694 11.3237 7.49279 11.3675C7.40157 11.385 7.30809 11.3967 7.21764 11.408C6.84764 11.4545 6.3409 11.5177 6.12891 12.1021C6.03465 12.3604 6.09579 12.5485 6.16373 12.6607C6.33251 12.9398 6.66086 12.9838 6.90062 13.0159C6.93926 13.021 6.99357 13.0284 7.02617 13.0348C7.17455 13.1435 7.63776 13.4514 8.11795 13.4514C8.35128 13.4549 8.57746 13.3709 8.7519 13.2159C8.83092 13.1489 9.20554 13.1533 9.38588 13.1556C9.7676 13.1601 10.128 13.1646 10.3581 12.932C10.414 12.8753 10.4577 12.8076 10.4864 12.7332C10.515 12.6588 10.5281 12.5793 10.5247 12.4997C10.5166 12.1703 11.1471 11.816 11.6538 11.5313C11.7761 11.4627 11.9011 11.3921 12.0225 11.3189C11.9998 11.4961 11.9684 11.673 11.9283 11.8496C11.6574 13.0647 10.9794 14.1508 10.0067 14.9278C9.0339 15.7048 7.82483 16.126 6.57987 16.1216ZM11.223 7.70644C11.7191 8.49207 12.0065 9.39131 12.058 10.3191C11.9437 10.4639 11.5271 10.6981 11.2675 10.8439C10.5891 11.2251 9.82621 11.6537 9.7434 12.3623C9.64403 12.3704 9.50086 12.3684 9.39559 12.3672C8.99164 12.3628 8.535 12.3568 8.23136 12.6238C8.10006 12.739 7.70047 12.5616 7.47228 12.3838C7.34451 12.284 7.19177 12.2597 7.02968 12.2377C7.12405 12.2167 7.21955 12.2011 7.31571 12.1911C7.41375 12.1787 7.52497 12.1649 7.64143 12.1425C7.99502 12.0747 8.91645 11.6879 8.99322 11.1767C9.00907 11.0735 8.99157 10.9679 8.94327 10.8754C8.89497 10.7828 8.8184 10.7081 8.72469 10.6621C7.55088 10.0419 7.3708 8.78831 7.36382 8.73693L7.35004 8.62611C7.35146 8.60008 7.3532 8.57195 7.35462 8.54776C7.37801 8.17157 7.42139 7.47122 6.86879 7.30207C6.71312 7.25718 6.55331 7.22815 6.39179 7.21543C6.17612 7.20183 5.96478 7.14868 5.76833 7.05863C5.6729 7.01616 5.65307 6.98818 5.65307 6.98818C5.629 6.93887 5.66464 6.71436 5.69066 6.55047C5.71143 6.41955 5.73483 6.27127 5.75387 6.09961C5.80502 5.63823 5.99089 5.34853 6.16817 5.15267C6.30093 5.14321 6.43448 5.13727 6.56949 5.13727C7.58424 5.1379 8.57916 5.41834 9.44485 5.94777L9.40541 5.9905C9.33701 6.05946 9.27388 6.13345 9.21655 6.21186L7.8064 5.84681L7.18809 6.46532C7.13697 6.51638 7.09641 6.57701 7.06874 6.64375C7.04106 6.71049 7.02681 6.78203 7.02679 6.85429C7.02678 6.92654 7.041 6.99809 7.06866 7.06484C7.09631 7.13159 7.13684 7.19224 7.18794 7.24332L7.23226 7.28774L8.85651 8.11206L8.91488 8.17042L9.73919 9.79494L9.78362 9.83925C9.83467 9.89036 9.8953 9.9309 9.96202 9.95857C10.0288 9.98624 10.1003 10.0005 10.1725 10.0005C10.2448 10.0005 10.3163 9.98634 10.383 9.95872C10.4498 9.93109 10.5104 9.89059 10.5615 9.83952L11.1802 9.22105L10.8077 7.78198C10.8816 7.72732 10.9514 7.6674 11.0167 7.60269L11.1011 7.52502C11.1424 7.58472 11.1839 7.6444 11.223 7.70644ZM14.7997 8.63587L14.4127 9.02285L12.3595 5.29204L10.4769 7.02776L10.4657 7.03844C10.3819 7.12274 10.285 7.19275 10.1786 7.24571L9.89099 7.38767L10.3039 8.98199L10.2424 9.04351L9.56133 7.70156L9.32551 7.46549L7.98371 6.78474L8.04512 6.72333L9.61642 7.13018L9.7568 6.83784C9.81034 6.7281 9.88198 6.62816 9.9687 6.5422L11.7098 4.65359L8.00422 2.61423L8.3912 2.2271L12.7614 3.53524L14.298 1.89286C14.4201 1.76994 14.5858 1.70029 14.7591 1.6991C14.8315 1.69823 14.9034 1.71173 14.9706 1.7388C15.0379 1.76587 15.099 1.80599 15.1506 1.85684C15.3745 2.08068 15.3581 2.46201 15.1149 2.7094L13.4829 4.23601L14.7997 8.63587Z" fill="#142347"/>
</svg>
